<svg width="25" height="30" viewBox="0 0 25 30" fill="none" xmlns="http://www.w3.org/2000/svg">
<path d="M24.4818 25.8697L19.6589 20.1867C19.4412 19.9302 19.1462 19.7877 18.8366 19.7877H18.0481C19.3832 17.7756 20.1765 15.2447 20.1765 12.4916C20.1765 5.94221 15.6729 0.635437 10.1147 0.635437C4.55654 0.635437 0.0529175 5.94221 0.0529175 12.4916C0.0529175 19.041 4.55654 24.3478 10.1147 24.3478C12.4512 24.3478 14.599 23.4129 16.3066 21.8397V22.7688C16.3066 23.1336 16.4275 23.4813 16.6452 23.7379L21.4681 29.4208C21.9228 29.9566 22.6581 29.9566 23.108 29.4208L24.477 27.8077C24.9317 27.2719 24.9317 26.4055 24.4818 25.8697ZM10.1147 19.7877C6.69468 19.7877 3.92284 16.5273 3.92284 12.4916C3.92284 8.46164 6.68984 5.1955 10.1147 5.1955C13.5348 5.1955 16.3066 8.45594 16.3066 12.4916C16.3066 16.5216 13.5396 19.7877 10.1147 19.7877Z" fill="white"/>
</svg>
