<svg width="23" height="23" viewBox="0 0 23 23" fill="none" xmlns="http://www.w3.org/2000/svg">
<path d="M1.67169 4.24163H21.7953C22.2228 4.24163 22.5693 3.83333 22.5693 3.32962V1.04959C22.5693 0.54587 22.2228 0.137573 21.7953 0.137573H1.67169C1.24421 0.137573 0.897705 0.54587 0.897705 1.04959V3.32962C0.897705 3.83333 1.24421 4.24163 1.67169 4.24163ZM1.67169 13.3618H21.7953C22.2228 13.3618 22.5693 12.9535 22.5693 12.4497V10.1697C22.5693 9.66599 22.2228 9.2577 21.7953 9.2577H1.67169C1.24421 9.2577 0.897705 9.66599 0.897705 10.1697V12.4497C0.897705 12.9535 1.24421 13.3618 1.67169 13.3618ZM1.67169 22.4819H21.7953C22.2228 22.4819 22.5693 22.0736 22.5693 21.5699V19.2898C22.5693 18.7861 22.2228 18.3778 21.7953 18.3778H1.67169C1.24421 18.3778 0.897705 18.7861 0.897705 19.2898V21.5699C0.897705 22.0736 1.24421 22.4819 1.67169 22.4819Z" fill="black"/>
</svg>
