<svg width="25" height="24" viewBox="0 0 25 24" fill="none" xmlns="http://www.w3.org/2000/svg">
<path d="M24.0583 8.89289H18.7952V1.23199C18.7952 0.627324 18.3796 0.137573 17.8665 0.137573H12.2938C11.7806 0.137573 11.365 0.627324 11.365 1.23199V4.51523H8.88824V0.867183C8.88824 0.464074 8.61115 0.137573 8.26905 0.137573H7.64986C7.30776 0.137573 7.03067 0.464074 7.03067 0.867183V4.51523H4.55392V0.867183C4.55392 0.464074 4.27683 0.137573 3.93473 0.137573H3.31555C2.97344 0.137573 2.69636 0.464074 2.69636 0.867183V4.51523H1.14839C0.635235 4.51523 0.219604 5.00498 0.219604 5.60965V22.0259C0.219604 22.8316 0.774165 23.4851 1.45798 23.4851H23.7488C24.4326 23.4851 24.9871 22.8316 24.9871 22.0259V9.98731C24.9871 9.38264 24.5711 8.89289 24.0583 8.89289ZM5.17311 18.5602C5.17311 18.8626 4.96529 19.1074 4.70872 19.1074H3.16075C2.90417 19.1074 2.69636 18.8626 2.69636 18.5602V16.7362C2.69636 16.4339 2.90417 16.189 3.16075 16.189H4.70872C4.96529 16.189 5.17311 16.4339 5.17311 16.7362V18.5602ZM5.17311 14.1826C5.17311 14.4849 4.96529 14.7298 4.70872 14.7298H3.16075C2.90417 14.7298 2.69636 14.4849 2.69636 14.1826V12.3585C2.69636 12.0562 2.90417 11.8113 3.16075 11.8113H4.70872C4.96529 11.8113 5.17311 12.0562 5.17311 12.3585V14.1826ZM5.17311 9.8049C5.17311 10.1072 4.96529 10.3521 4.70872 10.3521H3.16075C2.90417 10.3521 2.69636 10.1072 2.69636 9.8049V7.98088C2.69636 7.67855 2.90417 7.43367 3.16075 7.43367H4.70872C4.96529 7.43367 5.17311 7.67855 5.17311 7.98088V9.8049ZM10.1266 18.5602C10.1266 18.8626 9.9188 19.1074 9.66222 19.1074H8.11425C7.85768 19.1074 7.64986 18.8626 7.64986 18.5602V16.7362C7.64986 16.4339 7.85768 16.189 8.11425 16.189H9.66222C9.9188 16.189 10.1266 16.4339 10.1266 16.7362V18.5602ZM10.1266 14.1826C10.1266 14.4849 9.9188 14.7298 9.66222 14.7298H8.11425C7.85768 14.7298 7.64986 14.4849 7.64986 14.1826V12.3585C7.64986 12.0562 7.85768 11.8113 8.11425 11.8113H9.66222C9.9188 11.8113 10.1266 12.0562 10.1266 12.3585V14.1826ZM10.1266 9.8049C10.1266 10.1072 9.9188 10.3521 9.66222 10.3521H8.11425C7.85768 10.3521 7.64986 10.1072 7.64986 9.8049V7.98088C7.64986 7.67855 7.85768 7.43367 8.11425 7.43367H9.66222C9.9188 7.43367 10.1266 7.67855 10.1266 7.98088V9.8049ZM16.3185 14.1826C16.3185 14.4849 16.1107 14.7298 15.8541 14.7298H14.3061C14.0496 14.7298 13.8417 14.4849 13.8417 14.1826V12.3585C13.8417 12.0562 14.0496 11.8113 14.3061 11.8113H15.8541C16.1107 11.8113 16.3185 12.0562 16.3185 12.3585V14.1826ZM16.3185 9.8049C16.3185 10.1072 16.1107 10.3521 15.8541 10.3521H14.3061C14.0496 10.3521 13.8417 10.1072 13.8417 9.8049V7.98088C13.8417 7.67855 14.0496 7.43367 14.3061 7.43367H15.8541C16.1107 7.43367 16.3185 7.67855 16.3185 7.98088V9.8049ZM16.3185 5.42725C16.3185 5.72958 16.1107 5.97445 15.8541 5.97445H14.3061C14.0496 5.97445 13.8417 5.72958 13.8417 5.42725V3.60322C13.8417 3.30089 14.0496 3.05601 14.3061 3.05601H15.8541C16.1107 3.05601 16.3185 3.30089 16.3185 3.60322V5.42725ZM22.5104 18.5602C22.5104 18.8626 22.3026 19.1074 22.046 19.1074H20.498C20.2414 19.1074 20.0336 18.8626 20.0336 18.5602V16.7362C20.0336 16.4339 20.2414 16.189 20.498 16.189H22.046C22.3026 16.189 22.5104 16.4339 22.5104 16.7362V18.5602ZM22.5104 14.1826C22.5104 14.4849 22.3026 14.7298 22.046 14.7298H20.498C20.2414 14.7298 20.0336 14.4849 20.0336 14.1826V12.3585C20.0336 12.0562 20.2414 11.8113 20.498 11.8113H22.046C22.3026 11.8113 22.5104 12.0562 22.5104 12.3585V14.1826Z" fill="black"/>
</svg>
